# xmcd
#
# Track frame offsets: 
#        150
#        29627
#        61892
#        81952
#        91872
#        123595
#        163800
#        169757
#        188777
#        215670
#
# Disc length: 2949 seconds
#
# Revision: 2
# Processed by: cddbd v1.5.2PL0 Copyright (c) Steve Scherf et al.
# Submitted via: ExactAudioCopy v0.99pb5
#
DISCID=8a0b830a
DTITLE=Dave Liebman, Pat Metheny, Cecil McBee, Billy Hart - The Elemen
DTITLE=ts: Water
DYEAR=1998
DGENRE=Contemporary Jazz
TTITLE0=Water
TTITLE1=White Caps
TTITLE2=Heaven's Gift
TTITLE3=Bass Interlude
TTITLE4=Reflecting Pool
TTITLE5=Storm Surge
TTITLE6=Guitar Interlude
TTITLE7=The Baptismal Font
TTITLE8=Ebb And Flow
TTITLE9=Water Theme (reprise)
EXTD=YEAR: 1998
EXTT0=
EXTT1=
EXTT2=
EXTT3=
EXTT4=
EXTT5=
EXTT6=
EXTT7=
EXTT8=
EXTT9=
PLAYORDER=
